<svg width="1200" height="358" viewBox="0 0 1200 358" fill="none" xmlns="http://www.w3.org/2000/svg">
<path d="M173.886 190.576L86.8089 341.397C80.1232 339.428 73.5622 336.643 67.2596 333.004C24.4129 308.266 9.73258 253.478 34.4701 210.632C59.2076 167.785 113.995 153.105 156.842 177.842C163.145 181.481 168.838 185.77 173.886 190.576Z" fill="#6929C4"/>
<path d="M297.11 122.351C297.11 64.0253 249.828 16.743 191.502 16.743V235.747C191.502 294.073 238.784 341.355 297.11 341.355V122.351Z" fill="#6929C4"/>
<path d="M165.616 75.3883C165.616 106.006 140.795 130.827 110.177 130.827C79.5594 130.827 54.7388 106.006 54.7388 75.3883C54.7388 44.7706 79.5594 19.95 110.177 19.95C140.795 19.95 165.616 44.7706 165.616 75.3883Z" fill="#6929C4"/>
<path d="M716.622 309.448C698.038 309.448 682.681 303.769 670.55 292.413C658.678 281.056 652.741 265.183 652.741 244.793V173.169C652.741 163.361 651.838 154.198 650.031 145.681C648.224 137.163 645.772 127.097 642.675 115.483L641.514 111.224V109.675H717.396V235.888C717.396 247.503 720.106 255.891 725.527 261.053C731.205 266.215 738.432 268.796 747.207 268.796C758.048 268.796 770.824 264.667 785.536 256.407L783.213 263.376C776.502 277.314 767.727 288.541 756.886 297.059C746.304 305.318 732.882 309.448 716.622 309.448ZM792.117 305.963L790.569 303.253C785.923 294.994 782.309 286.734 779.728 278.475C777.405 269.958 776.244 260.408 776.244 249.826V173.169C776.244 163.361 775.341 154.198 773.534 145.681C771.727 137.163 769.275 127.097 766.178 115.483L765.016 111.224V109.675H840.899V242.47C840.899 252.278 841.673 261.44 843.222 269.958C845.029 278.475 847.481 288.541 850.578 300.156L851.739 304.415V305.963H792.117Z" fill="black"/>
<path d="M869.92 305.963V304.415L871.082 300.156C874.179 288.541 876.631 278.475 878.438 269.958C880.245 261.44 881.148 252.278 881.148 242.47V87.2201C881.148 77.154 880.116 67.6042 878.051 58.5705C875.986 49.2788 873.534 39.9871 870.695 30.6953C869.662 28.3724 869.146 26.9528 869.146 26.4366L868.759 24.888L879.987 23.3394L945.803 15.9834V242.47C945.803 252.278 946.706 261.44 948.513 269.958C950.32 278.475 952.643 288.541 955.482 300.156L957.031 304.415V305.963H869.92Z" fill="black"/>
<path fill-rule="evenodd" clip-rule="evenodd" d="M453.151 300.543C462.7 306.479 474.057 309.448 487.22 309.448C499.609 309.448 510.45 306.996 519.741 302.092C529.033 296.93 536.26 290.864 541.422 283.895C543.024 281.759 544.446 279.668 545.687 277.622C547.744 284.607 550.968 290.569 555.36 295.51C563.619 304.802 575.105 309.448 589.817 309.448C602.464 309.448 612.53 306.092 620.015 299.382C627.758 292.671 632.146 284.024 633.178 273.442L632.404 272.281C623.112 276.668 616.659 276.797 613.046 272.668C609.691 268.28 608.013 259.763 608.013 247.115V173.943C608.013 153.553 601.947 137.421 589.817 125.548C577.686 113.418 558.715 107.352 532.905 107.352C521.548 107.352 507.61 108.643 491.092 111.224C474.831 113.547 457.925 116.773 440.374 120.903V159.816C440.683 166.932 450.58 171.429 456.288 167.043C463.697 161.35 472.97 154.536 482.577 148.101C486.241 145.63 489.853 143.275 493.415 141.035C509.417 130.711 521.29 125.548 529.033 125.548C534.195 125.548 537.809 128.904 539.873 135.615C541.938 142.067 542.971 153.295 542.971 169.297V191.226C541.972 190.869 540.939 190.528 539.873 190.204C534.195 188.139 528.259 186.59 522.064 185.558C516.128 184.525 510.45 184.009 505.029 184.009C490.834 183.235 477.541 185.429 465.152 190.591C452.763 195.495 442.826 202.98 435.341 213.046C428.114 222.854 424.501 234.21 424.501 247.115C424.501 257.698 426.824 267.764 431.47 277.314C436.374 286.863 443.601 294.607 453.151 300.543ZM542.971 203.418C542.342 203.384 541.697 203.367 541.035 203.367L533.292 202.593C524 202.076 516.257 203.238 510.062 206.077C503.868 208.658 499.222 212.788 496.125 218.466C493.286 223.886 491.866 230.21 491.866 237.437C491.866 248.277 494.705 257.182 500.384 264.15C506.062 271.119 513.805 274.604 523.613 274.604C529.033 274.604 534.066 273.184 538.712 270.345C540.363 269.336 541.965 268.132 543.518 266.732C543.153 263.579 542.971 260.266 542.971 256.794V203.418Z" fill="black"/>
<path fill-rule="evenodd" clip-rule="evenodd" d="M997.457 300.543C1007.01 306.479 1018.36 309.448 1031.53 309.448C1043.92 309.448 1054.76 306.996 1064.05 302.092C1073.34 296.93 1080.57 290.864 1085.73 283.895C1087.33 281.759 1088.75 279.668 1089.99 277.622C1092.05 284.607 1095.27 290.569 1099.67 295.51C1107.93 304.802 1119.41 309.448 1134.12 309.448C1146.77 309.448 1156.84 306.092 1164.32 299.382C1172.06 292.671 1176.45 284.024 1177.48 273.442L1176.71 272.281C1167.42 276.668 1160.97 276.797 1157.35 272.668C1154 268.28 1152.32 259.763 1152.32 247.115V173.943C1152.32 153.553 1146.25 137.421 1134.12 125.548C1121.99 113.418 1103.02 107.352 1077.21 107.352C1065.85 107.352 1051.92 108.643 1035.4 111.224C1019.14 113.547 1002.23 116.773 984.681 120.903V159.816C984.989 166.932 994.887 171.429 1000.59 167.043C1008 161.35 1017.28 154.536 1026.88 148.101C1030.55 145.63 1034.16 143.275 1037.72 141.035C1053.72 130.711 1065.6 125.548 1073.34 125.548C1078.5 125.548 1082.12 128.904 1084.18 135.615C1086.24 142.067 1087.28 153.295 1087.28 169.297V191.226C1086.28 190.869 1085.25 190.528 1084.18 190.204C1078.5 188.139 1072.57 186.59 1066.37 185.558C1060.43 184.525 1054.76 184.009 1049.34 184.009C1035.14 183.235 1021.85 185.429 1009.46 190.591C997.07 195.495 987.133 202.98 979.648 213.046C972.421 222.854 968.807 234.21 968.807 247.115C968.807 257.698 971.13 267.764 975.776 277.314C980.68 286.863 987.907 294.607 997.457 300.543ZM1087.28 203.418C1086.65 203.384 1086 203.367 1085.34 203.367L1077.6 202.593C1068.31 202.076 1060.56 203.238 1054.37 206.077C1048.17 208.658 1043.53 212.788 1040.43 218.466C1037.59 223.886 1036.17 230.21 1036.17 237.437C1036.17 248.277 1039.01 257.182 1044.69 264.15C1050.37 271.119 1058.11 274.604 1067.92 274.604C1073.34 274.604 1078.37 273.184 1083.02 270.345C1084.67 269.336 1086.27 268.132 1087.82 266.732C1087.46 263.579 1087.28 260.266 1087.28 256.794V203.418Z" fill="black"/>
</svg>
